<mxfile host="app.diagrams.net" agent="Mozilla/5.0 (Windows NT 10.0; Win64; x64) AppleWebKit/537.36 (KHTML, like Gecko) Chrome/128.0.0.0 Safari/537.36" version="24.7.13">
  <diagram name="Page-1" id="ufdNACyK0IBXWiNxQNW9">
    <mxGraphModel grid="1" page="1" gridSize="10" guides="1" tooltips="1" connect="1" arrows="1" fold="1" pageScale="1" pageWidth="850" pageHeight="1100" background="none" math="0" shadow="1">
      <root>
        <mxCell id="0" />
        <mxCell id="1" parent="0" />
        <mxCell id="bEY-0FQtZyHADfspirv9-1" value="Mulai" style="ellipse;whiteSpace=wrap;html=1;" vertex="1" parent="1">
          <mxGeometry x="310" y="80" width="190" height="80" as="geometry" />
        </mxCell>
        <mxCell id="bEY-0FQtZyHADfspirv9-2" value="" style="endArrow=classic;html=1;rounded=0;exitX=0.5;exitY=1;exitDx=0;exitDy=0;" edge="1" parent="1" source="bEY-0FQtZyHADfspirv9-1" target="bEY-0FQtZyHADfspirv9-4">
          <mxGeometry width="50" height="50" relative="1" as="geometry">
            <mxPoint x="400" y="330" as="sourcePoint" />
            <mxPoint x="380" y="230" as="targetPoint" />
          </mxGeometry>
        </mxCell>
        <mxCell id="bEY-0FQtZyHADfspirv9-4" value="Input jari jari lingkaran&lt;div&gt;(r)&lt;/div&gt;" style="shape=parallelogram;perimeter=parallelogramPerimeter;whiteSpace=wrap;html=1;fixedSize=1;" vertex="1" parent="1">
          <mxGeometry x="300" y="200" width="210" height="60" as="geometry" />
        </mxCell>
        <mxCell id="bEY-0FQtZyHADfspirv9-5" value="" style="endArrow=classic;html=1;rounded=0;exitX=0.5;exitY=1;exitDx=0;exitDy=0;" edge="1" parent="1" source="bEY-0FQtZyHADfspirv9-4" target="bEY-0FQtZyHADfspirv9-6">
          <mxGeometry width="50" height="50" relative="1" as="geometry">
            <mxPoint x="400" y="330" as="sourcePoint" />
            <mxPoint x="395" y="310" as="targetPoint" />
          </mxGeometry>
        </mxCell>
        <mxCell id="bEY-0FQtZyHADfspirv9-6" value="hitung luas lingkaran&lt;div&gt;luas=&lt;span style=&quot;background-color: rgb(255, 255, 255); color: rgb(0, 0, 0); font-family: Helvetica-FF, Arial, Tahoma, sans-serif; font-size: 16px; text-align: start;&quot;&gt;Ï€ x r^2&lt;/span&gt;&lt;/div&gt;" style="rounded=0;whiteSpace=wrap;html=1;" vertex="1" parent="1">
          <mxGeometry x="310" y="300" width="190" height="60" as="geometry" />
        </mxCell>
        <mxCell id="bEY-0FQtZyHADfspirv9-7" value="" style="endArrow=classic;html=1;rounded=0;exitX=0.5;exitY=0.967;exitDx=0;exitDy=0;exitPerimeter=0;" edge="1" parent="1" source="bEY-0FQtZyHADfspirv9-6" target="bEY-0FQtZyHADfspirv9-8">
          <mxGeometry width="50" height="50" relative="1" as="geometry">
            <mxPoint x="400" y="330" as="sourcePoint" />
            <mxPoint x="420" y="430" as="targetPoint" />
          </mxGeometry>
        </mxCell>
        <mxCell id="bEY-0FQtZyHADfspirv9-8" value="Tampilkan hasil&lt;div&gt;(luas)&lt;/div&gt;" style="rounded=1;whiteSpace=wrap;html=1;" vertex="1" parent="1">
          <mxGeometry x="310" y="410" width="190" height="60" as="geometry" />
        </mxCell>
        <mxCell id="bEY-0FQtZyHADfspirv9-9" value="" style="endArrow=classic;html=1;rounded=0;exitX=0.5;exitY=1;exitDx=0;exitDy=0;" edge="1" parent="1" source="bEY-0FQtZyHADfspirv9-8" target="bEY-0FQtZyHADfspirv9-10">
          <mxGeometry width="50" height="50" relative="1" as="geometry">
            <mxPoint x="400" y="330" as="sourcePoint" />
            <mxPoint x="405" y="530" as="targetPoint" />
          </mxGeometry>
        </mxCell>
        <mxCell id="bEY-0FQtZyHADfspirv9-10" value="end" style="rounded=1;whiteSpace=wrap;html=1;" vertex="1" parent="1">
          <mxGeometry x="310" y="510" width="190" height="60" as="geometry" />
        </mxCell>
      </root>
    </mxGraphModel>
  </diagram>
</mxfile>
